<svg xmlns="http://www.w3.org/2000/svg" width="40" height="40" viewBox="0 0 40 40"><rect width="100%" height="100%" fill="#fff"/><path fill="#31343C" d="M8.39 20.07h.9q.34 0 .58-.08.25-.08.41-.24.17-.15.25-.38.08-.22.08-.49 0-.26-.08-.48-.08-.21-.24-.36-.16-.14-.41-.22-.25-.08-.59-.08h-.9v2.33ZM7.18 16.8h2.11q.66 0 1.13.16.48.15.79.42.31.28.46.66.15.38.15.84 0 .47-.16.86-.15.4-.47.68-.31.28-.79.44-.47.16-1.11.16h-.9v2.29H7.18V16.8Zm6.37 2.17.07.52q.22-.41.51-.65.3-.23.71-.23.32 0 .51.14l-.07.83q-.02.08-.07.11-.04.04-.11.04t-.2-.02q-.14-.03-.26-.03-.19 0-.33.06-.14.05-.26.15-.11.1-.2.25-.09.14-.17.33v2.84h-1.11v-4.62h.66q.17 0 .23.06.07.06.09.22Zm4.42-.35q.52 0 .94.17.42.16.72.47.3.31.46.75.16.44.16.98 0 .55-.16.99-.16.44-.46.75-.3.31-.72.48-.42.17-.94.17-.51 0-.94-.17-.42-.17-.72-.48-.3-.31-.46-.75-.17-.44-.17-.99 0-.54.17-.98.16-.44.46-.75.3-.31.72-.47.43-.17.94-.17Zm0 3.9q.58 0 .86-.38.27-.39.27-1.14 0-.75-.27-1.14-.28-.39-.86-.39t-.86.4q-.28.39-.28 1.13 0 .74.28 1.13.28.39.86.39Zm4.57.79h-1.12v-3.78l-.4-.06q-.13-.03-.21-.1-.07-.06-.07-.18v-.46h.68v-.34q0-.39.12-.71.12-.31.35-.54.22-.22.54-.33.32-.12.72-.12.32 0 .59.09l-.02.55q0 .07-.04.11-.03.03-.08.05-.05.02-.12.03-.07.01-.14.01-.2 0-.36.04-.15.04-.26.15-.11.1-.16.28-.06.17-.06.43v.3h1.2v.8h-1.16v3.78Zm1.82-4.62h1.12v4.62h-1.12v-4.62Zm1.27-1.34q0 .14-.06.27-.05.12-.15.22-.1.09-.23.15-.13.05-.28.05-.14 0-.27-.05-.13-.06-.22-.15-.1-.1-.15-.22-.06-.13-.06-.27 0-.15.06-.28.05-.13.15-.23.09-.09.22-.15.13-.05.27-.05.15 0 .28.05.13.06.23.15.1.1.15.23.06.13.06.28Zm1-.73h1.11v6.69h-1.11v-6.69Zm3.1 3.85h2.09q0-.22-.06-.41-.06-.19-.18-.33-.12-.15-.31-.23-.18-.08-.43-.08-.48 0-.76.27-.28.28-.35.78Zm2.83.67H29.7q.03.36.13.62.1.25.26.42.16.17.39.25.22.09.49.09t.46-.07q.2-.06.35-.13.14-.08.25-.14.11-.07.22-.07.14 0 .2.11l.32.4q-.18.22-.41.36-.23.15-.48.24-.25.09-.51.12-.26.04-.5.04-.48 0-.9-.16-.41-.16-.72-.47-.3-.32-.48-.78-.17-.46-.17-1.07 0-.47.15-.89.15-.41.44-.72.29-.31.7-.49t.93-.18q.43 0 .8.14.37.14.64.41.26.27.41.65.15.39.15.89 0 .26-.05.34-.05.09-.21.09Z"/>
<rect xmlns="http://www.w3.org/2000/svg" width="100%" height="100%" fill="#36A8B7"/>
<path xmlns="http://www.w3.org/2000/svg" fill="#051212" d="M8.39 20.07h.9q.34 0 .58-.08.25-.08.41-.24.17-.15.25-.38.08-.22.08-.49 0-.26-.08-.48-.08-.21-.24-.36-.16-.14-.41-.22-.25-.08-.59-.08h-.9v2.33ZM7.18 16.8h2.11q.66 0 1.13.16.48.15.79.42.31.28.46.66.15.38.15.84 0 .47-.16.86-.15.4-.47.68-.31.28-.79.44-.47.16-1.11.16h-.9v2.29H7.18V16.8Zm6.37 2.17.07.52q.22-.41.51-.65.3-.23.71-.23.32 0 .51.14l-.07.83q-.02.08-.07.11-.04.04-.11.04t-.2-.02q-.14-.03-.26-.03-.19 0-.33.06-.14.05-.26.15-.11.1-.2.25-.09.14-.17.33v2.84h-1.11v-4.62h.66q.17 0 .23.06.07.06.09.22Zm4.42-.35q.52 0 .94.17.42.16.72.47.3.31.46.75.16.44.16.98 0 .55-.16.99-.16.44-.46.75-.3.31-.72.48-.42.17-.94.17-.51 0-.94-.17-.42-.17-.72-.48-.3-.31-.46-.75-.17-.44-.17-.99 0-.54.17-.98.16-.44.46-.75.3-.31.72-.47.43-.17.94-.17Zm0 3.9q.58 0 .86-.38.27-.39.27-1.14 0-.75-.27-1.14-.28-.39-.86-.39t-.86.4q-.28.39-.28 1.13 0 .74.28 1.13.28.39.86.39Zm4.57.79h-1.12v-3.78l-.4-.06q-.13-.03-.21-.1-.07-.06-.07-.18v-.46h.68v-.34q0-.39.12-.71.12-.31.35-.54.22-.22.54-.33.32-.12.72-.12.32 0 .59.09l-.02.55q0 .07-.04.11-.03.03-.08.05-.05.02-.12.03-.07.01-.14.01-.2 0-.36.04-.15.04-.26.15-.11.1-.16.28-.06.17-.06.43v.3h1.2v.8h-1.16v3.78Zm1.82-4.62h1.12v4.62h-1.12v-4.62Zm1.27-1.34q0 .14-.06.27-.05.12-.15.22-.1.09-.23.15-.13.05-.28.05-.14 0-.27-.05-.13-.06-.22-.15-.1-.1-.15-.22-.06-.13-.06-.27 0-.15.06-.28.05-.13.15-.23.09-.09.22-.15.13-.05.27-.05.15 0 .28.05.13.06.23.15.1.1.15.23.06.13.06.28Zm1-.73h1.11v6.69h-1.11v-6.69Zm3.1 3.85h2.09q0-.22-.06-.41-.06-.19-.18-.33-.12-.15-.31-.23-.18-.08-.43-.08-.48 0-.76.27-.28.28-.35.78Zm2.83.67H29.7q.03.36.13.62.1.25.26.42.16.17.39.25.22.09.49.09t.46-.07q.2-.06.35-.13.14-.08.25-.14.11-.07.22-.07.14 0 .2.11l.32.4q-.18.22-.41.36-.23.15-.48.24-.25.09-.51.12-.26.04-.5.04-.48 0-.9-.16-.41-.16-.72-.47-.3-.32-.48-.78-.17-.46-.17-1.07 0-.47.15-.89.15-.41.44-.72.29-.31.7-.49t.93-.18q.43 0 .8.14.37.14.64.41.26.27.41.65.15.39.15.89 0 .26-.05.34-.05.09-.21.09Z"/>
</svg>